<?xml version="1.0" standalone="no"?>
<!DOCTYPE svg PUBLIC "-//W3C//DTD SVG 20010904//EN"
 "http://www.w3.org/TR/2001/REC-SVG-20010904/DTD/svg10.dtd">
<svg version="1.0" xmlns="http://www.w3.org/2000/svg"
 width="999.000000pt" height="1003.000000pt" viewBox="0 0 999.000000 1003.000000"
 preserveAspectRatio="xMidYMid meet">

<g transform="translate(0.000000,1003.000000) scale(0.100000,-0.100000)"
fill="#000000" stroke="none">
<path d="M0 5015 l0 -5015 4995 0 4995 0 0 5015 0 5015 -4995 0 -4995 0 0
-5015z m5860 1230 c-215 -384 -390 -699 -388 -700 2 -2 415 3 919 11 503 8
990 13 1081 12 l166 -3 -404 -720 c-222 -396 -434 -775 -471 -841 l-67 -121
-420 -7 c-232 -3 -559 -9 -728 -12 l-307 -7 -187 -336 c-103 -185 -194 -343
-203 -352 -14 -15 -74 -18 -555 -24 l-539 -7 25 43 c23 39 786 1399 1056 1882
58 103 103 189 101 191 -8 7 -1084 -15 -1087 -22 -1 -4 -90 -162 -196 -352
l-194 -345 -537 -8 c-296 -4 -540 -6 -542 -3 -3 2 165 307 373 678 208 370
509 907 669 1193 l292 520 299 6 c164 4 544 10 844 14 300 4 734 11 965 14
231 3 421 3 423 -1 2 -3 -173 -320 -388 -703z"/>
<path d="M4560 6617 c-466 -6 -648 -12 -657 -20 -6 -7 -167 -291 -358 -632
-191 -341 -410 -731 -486 -867 -77 -137 -139 -251 -139 -254 0 -10 350 2 359
12 5 5 84 144 176 309 92 165 178 319 191 341 l24 42 162 6 c90 3 417 9 727
14 l564 7 98 174 c54 96 97 175 96 176 -1 1 -323 -3 -715 -8 -392 -6 -715 -7
-719 -4 -3 4 37 82 89 174 l95 168 389 8 c214 4 541 10 727 15 l339 7 90 160
c49 88 92 166 95 173 6 14 -120 14 -1147 -1z"/>
<path d="M6629 5246 c-4 -3 -924 -16 -1190 -16 l-147 0 -408 -727 c-224 -401
-447 -798 -494 -883 l-87 -155 121 -3 c67 -2 148 0 181 3 l60 6 195 348 195
349 190 6 c104 3 431 9 727 12 l536 7 96 172 c53 94 96 174 96 176 0 4 -102 3
-940 -9 -272 -5 -497 -7 -499 -5 -2 1 41 81 95 176 l98 175 435 6 c240 3 517
8 616 11 99 2 230 5 290 5 l111 0 62 113 c34 61 78 140 98 175 l35 62 -234 0
c-128 0 -236 -2 -238 -4z"/>
</g>
</svg>
